<?xml version="1.0" encoding="utf-8"?><svg version="1.1" id="Layer_1" xmlns="http://www.w3.org/2000/svg" xmlns:xlink="http://www.w3.org/1999/xlink" x="0px" y="0px" viewBox="0 0 122.88 78.47" style="enable-background:new 0 0 122.88 78.47" xml:space="preserve"><style type="text/css"><![CDATA[
	.st0{fill-rule:evenodd;clip-rule:evenodd;}
]]></style><g><path class="st0" d="M2.54,73.4h12.59c-0.93-0.24-1.63-1.1-1.63-2.1V34.03c0.27,0.03,0.54,0.04,0.81,0.04 c0.27,0,0.54-0.01,0.81-0.04c0.27,0.39,0.57,0.75,0.9,1.09c0.24,0.24,0.49,0.45,0.75,0.64c0.14,0.11,0.28,0.21,0.43,0.31v34.61 h88.19V11.36H44.55c-0.36-0.84-0.87-1.59-1.53-2.27l-0.15-0.15c-0.17-0.16-0.34-0.32-0.52-0.47c0.03-0.17,0.06-0.34,0.08-0.51 h64.21c1.2,0,2.17,0.98,2.17,2.17v61.16c0,1.01-0.69,1.86-1.63,2.1h13.16c1.4,0,2.54,1.14,2.54,2.54l0,0c0,1.4-1.14,2.54-2.54,2.54 H2.54c-1.4,0-2.54-1.14-2.54-2.54l0,0C0,74.54,1.14,73.4,2.54,73.4L2.54,73.4L2.54,73.4z M57.51,25.92c-0.2-0.2-0.44-0.3-0.72-0.3 c-0.27,0-0.52,0.1-0.72,0.3L54.99,27c-0.29-0.19-0.6-0.35-0.93-0.5c-0.32-0.15-0.65-0.27-0.99-0.39v-1.67 c0-0.28-0.1-0.52-0.29-0.72c-0.2-0.2-0.43-0.29-0.72-0.29h-2.1c-0.27,0-0.5,0.1-0.71,0.29c-0.2,0.2-0.3,0.43-0.3,0.72v1.53 c-0.35,0.08-0.69,0.19-1.02,0.31c-0.33,0.13-0.64,0.27-0.94,0.43l-1.21-1.19c-0.19-0.2-0.42-0.3-0.7-0.3c-0.28,0-0.51,0.1-0.72,0.3 L42.91,27c-0.2,0.2-0.3,0.44-0.3,0.72c0,0.28,0.1,0.52,0.3,0.72L44,29.53c-0.19,0.29-0.35,0.6-0.5,0.93 c-0.15,0.32-0.28,0.65-0.39,0.99h-1.67c-0.28,0-0.52,0.1-0.72,0.29c-0.2,0.2-0.29,0.43-0.29,0.72v2.1c0,0.27,0.1,0.5,0.29,0.71 c0.2,0.2,0.43,0.3,0.72,0.3h1.53c0.08,0.35,0.19,0.69,0.31,1.02c0.13,0.33,0.27,0.65,0.43,0.96l-1.19,1.19 c-0.2,0.19-0.3,0.42-0.3,0.7c0,0.28,0.1,0.51,0.3,0.72L44,41.63c0.2,0.19,0.44,0.28,0.72,0.28s0.52-0.09,0.72-0.28l1.09-1.11 c0.29,0.19,0.6,0.35,0.93,0.5c0.32,0.15,0.65,0.28,0.99,0.38v1.67c0,0.28,0.1,0.52,0.29,0.71c0.2,0.2,0.43,0.29,0.72,0.29h2.1 c0.27,0,0.5-0.1,0.71-0.29c0.2-0.2,0.3-0.43,0.3-0.71v-1.53c0.35-0.08,0.69-0.19,1.02-0.31c0.33-0.13,0.65-0.27,0.96-0.43 l1.19,1.19c0.19,0.2,0.42,0.3,0.71,0.3c0.29,0,0.52-0.1,0.71-0.3l1.49-1.47c0.19-0.2,0.28-0.44,0.28-0.72s-0.09-0.52-0.28-0.72 l-1.11-1.09c0.19-0.29,0.35-0.6,0.5-0.93c0.15-0.32,0.27-0.65,0.38-0.99h1.67c0.28,0,0.52-0.1,0.72-0.29 c0.2-0.2,0.29-0.43,0.29-0.72v-2.1c0-0.27-0.1-0.5-0.29-0.71c-0.2-0.2-0.43-0.3-0.72-0.3h-1.53c-0.08-0.34-0.19-0.67-0.31-1.01 c-0.13-0.34-0.27-0.65-0.43-0.95l1.19-1.21c0.2-0.19,0.3-0.42,0.3-0.7c0-0.28-0.1-0.51-0.3-0.72L57.51,25.92L57.51,25.92 L57.51,25.92z M50.76,29.65c0.56,0,1.1,0.11,1.6,0.32c0.5,0.22,0.94,0.51,1.31,0.88c0.37,0.37,0.66,0.81,0.88,1.31 c0.21,0.51,0.32,1.04,0.32,1.6s-0.11,1.1-0.32,1.6c-0.22,0.5-0.51,0.94-0.88,1.31c-0.37,0.37-0.81,0.66-1.31,0.88 c-0.51,0.21-1.04,0.32-1.6,0.32c-0.56,0-1.1-0.11-1.6-0.32c-0.5-0.22-0.94-0.51-1.31-0.88c-0.37-0.37-0.66-0.81-0.88-1.31 c-0.21-0.51-0.32-1.04-0.32-1.6s0.11-1.1,0.32-1.6c0.22-0.5,0.51-0.94,0.88-1.31c0.37-0.37,0.81-0.66,1.31-0.88 C49.66,29.75,50.19,29.65,50.76,29.65L50.76,29.65L50.76,29.65z M33.65,3.75c-0.31-0.31-0.67-0.46-1.08-0.46 c-0.42,0-0.78,0.15-1.08,0.46l-1.65,1.64c-0.44-0.29-0.91-0.54-1.4-0.76c-0.49-0.22-0.99-0.42-1.49-0.58V1.52 c0-0.43-0.14-0.78-0.44-1.08C26.21,0.15,25.85,0,25.42,0h-3.17c-0.41,0-0.76,0.15-1.07,0.44c-0.3,0.3-0.45,0.65-0.45,1.08v2.32 c-0.53,0.12-1.05,0.28-1.54,0.47c-0.5,0.19-0.97,0.41-1.42,0.66l-1.83-1.8c-0.29-0.3-0.63-0.46-1.06-0.46 c-0.42,0-0.78,0.16-1.08,0.46l-2.22,2.23c-0.31,0.31-0.46,0.67-0.46,1.08c0,0.42,0.15,0.78,0.46,1.08l1.64,1.65 c-0.29,0.44-0.54,0.91-0.76,1.4c-0.22,0.49-0.42,0.99-0.58,1.49H9.36c-0.43,0-0.79,0.15-1.08,0.44c-0.3,0.3-0.44,0.66-0.44,1.08 v3.17c0,0.4,0.15,0.76,0.44,1.07c0.3,0.3,0.66,0.45,1.08,0.45h2.31c0.13,0.53,0.28,1.04,0.47,1.54c0.19,0.5,0.41,0.98,0.66,1.45 L11,23.1c-0.3,0.29-0.46,0.63-0.46,1.06c0,0.42,0.16,0.78,0.46,1.08l2.23,2.25c0.31,0.29,0.67,0.43,1.08,0.43 c0.42,0,0.78-0.14,1.08-0.43l1.65-1.68c0.44,0.29,0.91,0.54,1.4,0.76c0.49,0.22,0.99,0.42,1.49,0.58v2.53 c0,0.43,0.15,0.78,0.44,1.08c0.3,0.3,0.66,0.44,1.08,0.44h3.17c0.41,0,0.76-0.15,1.07-0.44c0.3-0.3,0.45-0.65,0.45-1.08v-2.31 c0.53-0.12,1.04-0.28,1.54-0.47c0.5-0.19,0.98-0.41,1.45-0.65l1.79,1.8c0.29,0.3,0.64,0.46,1.07,0.46c0.43,0,0.79-0.16,1.07-0.46 l2.25-2.23c0.29-0.31,0.43-0.67,0.43-1.08c0-0.42-0.14-0.78-0.43-1.08L33.65,22c0.29-0.44,0.54-0.91,0.76-1.4 c0.22-0.49,0.42-0.99,0.58-1.49h2.53c0.43,0,0.78-0.15,1.08-0.44c0.3-0.3,0.44-0.66,0.44-1.08v-3.17c0-0.41-0.15-0.76-0.44-1.07 c-0.3-0.3-0.65-0.45-1.08-0.45H35.2c-0.13-0.51-0.28-1.02-0.47-1.52c-0.19-0.51-0.41-0.99-0.65-1.44l1.8-1.82 c0.3-0.29,0.46-0.64,0.46-1.06c0-0.42-0.16-0.78-0.46-1.08L33.65,3.75L33.65,3.75L33.65,3.75z M23.44,9.39 c0.85,0,1.66,0.16,2.42,0.48c0.76,0.33,1.42,0.77,1.98,1.33c0.56,0.56,1,1.22,1.33,1.98c0.32,0.77,0.48,1.57,0.48,2.42 c0,0.85-0.16,1.66-0.48,2.42c-0.33,0.76-0.77,1.42-1.33,1.98c-0.56,0.56-1.22,1-1.98,1.33c-0.76,0.32-1.57,0.48-2.42,0.48 c-0.85,0-1.66-0.16-2.42-0.48c-0.76-0.33-1.42-0.77-1.98-1.33c-0.56-0.56-1-1.22-1.33-1.98c-0.32-0.76-0.48-1.57-0.48-2.42 c0-0.85,0.16-1.66,0.48-2.42c0.33-0.76,0.77-1.42,1.33-1.98c0.56-0.56,1.22-1,1.98-1.33C21.78,9.55,22.59,9.39,23.44,9.39 L23.44,9.39L23.44,9.39z M66.37,29.08l8.97-8.68c3.2,3.2,4.39,4.39,7.62,7.58l6.59-6.69l-3.97-3.97l11.17-0.1v11.26l-3.81-3.81 c-3.97,4.02-5.96,6.07-9.95,10.06l-7.71-7.59l-5.52,5.33L66.37,29.08L66.37,29.08z M36.96,49.16h13.98v3.61H42.2v2.69h8.1v3.45 h-8.1v3.33h9v3.83H36.96V49.16L36.96,49.16z M53.69,66.07V49.16h8.7c1.61,0,2.85,0.14,3.7,0.42c0.85,0.28,1.54,0.79,2.07,1.54 c0.52,0.75,0.78,1.67,0.78,2.75c0,0.94-0.2,1.75-0.6,2.43c-0.4,0.68-0.95,1.24-1.65,1.66c-0.44,0.27-1.06,0.49-1.83,0.67 c0.62,0.21,1.07,0.41,1.36,0.62c0.19,0.14,0.47,0.44,0.83,0.89c0.36,0.45,0.61,0.8,0.73,1.05l2.54,4.88h-5.9l-2.79-5.16 c-0.35-0.67-0.67-1.1-0.94-1.3c-0.38-0.26-0.81-0.39-1.28-0.39h-0.46v6.85H53.69L53.69,66.07z M58.93,56.03h2.21 c0.24,0,0.7-0.08,1.39-0.23c0.35-0.07,0.63-0.24,0.85-0.53c0.22-0.29,0.33-0.61,0.33-0.98c0-0.55-0.17-0.97-0.52-1.26 c-0.35-0.29-1-0.44-1.95-0.44h-2.3V56.03L58.93,56.03z M71.57,49.16h8.69c1.89,0,3.31,0.45,4.25,1.35c0.94,0.9,1.41,2.18,1.41,3.85 c0,1.71-0.52,3.05-1.54,4.01c-1.03,0.96-2.6,1.44-4.71,1.44h-2.87v6.26h-5.24V49.16L71.57,49.16z M76.81,56.39h1.29 c1.02,0,1.73-0.18,2.14-0.53c0.41-0.35,0.62-0.8,0.62-1.35c0-0.53-0.18-0.98-0.54-1.35c-0.36-0.37-1.02-0.55-2.01-0.55h-1.5V56.39 L76.81,56.39z M57.87,74.35h7.14c0.67,0,1.22,0.55,1.22,1.22l0,0c0,0.67-0.55,1.22-1.22,1.22h-7.14c-0.67,0-1.22-0.55-1.22-1.22 l0,0C56.65,74.89,57.2,74.35,57.87,74.35L57.87,74.35L57.87,74.35z"/></g></svg>